HIERARCHY
ROOT Root
{
  OFFSET 0.0 0.0 0.0
  CHANNELS 6 Xposition Yposition Zposition Zrotation Yrotation Xrotation
  JOINT Hips
  {
    OFFSET 0.0 100.0 0.0
    CHANNELS 6 Xposition Yposition Zposition Zrotation Yrotation Xrotation
    JOINT Spine1
    {
      OFFSET 5.003913 -0.037094 -0.013727
      CHANNELS 3 Zrotation Yrotation Xrotation
      JOINT Spine2
      {
        OFFSET 7.125363 -1e-06 0.0
        CHANNELS 3 Zrotation Yrotation Xrotation
        JOINT Chest
        {
          OFFSET 7.594027 1e-06 0.0
          CHANNELS 3 Zrotation Yrotation Xrotation
          JOINT Neck1
          {
            OFFSET 26.313086 -0.460272 -0.181672
            CHANNELS 3 Zrotation Yrotation Xrotation
            JOINT Neck2
            {
              OFFSET 8.045911 0.0 0.0
              CHANNELS 3 Zrotation Yrotation Xrotation
              JOINT Head
              {
                OFFSET 6.432774 0.0 0.0
                CHANNELS 3 Zrotation Yrotation Xrotation
                JOINT HeadEnd
                {
                  OFFSET 16.169773 0.06451 0.00362
                  CHANNELS 3 Zrotation Yrotation Xrotation
                }
                JOINT Jaw
                {
                  OFFSET 0.108741 3.12938 0.002639
                  CHANNELS 3 Zrotation Yrotation Xrotation
                }
                JOINT LeftEye
                {
                  OFFSET 4.45173 8.166359 3.206392
                  CHANNELS 3 Zrotation Yrotation Xrotation
                }
                JOINT RightEye
                {
                  OFFSET 4.436895 8.135758 -3.222429
                  CHANNELS 3 Zrotation Yrotation Xrotation
                }
              }
            }
          }
          JOINT LeftShoulder
          {
            OFFSET 23.218927 5.195579 1.621656
            CHANNELS 3 Zrotation Yrotation Xrotation
            JOINT LeftArm
            {
              OFFSET 15.902118 2e-06 -2e-06
              CHANNELS 3 Zrotation Yrotation Xrotation
              JOINT LeftForeArm
              {
                OFFSET 28.739307 0.0 -1e-06
                CHANNELS 3 Zrotation Yrotation Xrotation
                JOINT LeftHand
                {
                  OFFSET 27.093981 -4e-06 0.0
                  CHANNELS 3 Zrotation Yrotation Xrotation
                  JOINT LeftHandThumb1
                  {
                    OFFSET 2.276781 3.380274 0.83384
                    CHANNELS 3 Zrotation Yrotation Xrotation
                    JOINT LeftHandThumb2
                    {
                      OFFSET 4.705309 -1e-06 -1e-06
                      CHANNELS 3 Zrotation Yrotation Xrotation
                      JOINT LeftHandThumb3
                      {
                        OFFSET 2.798515 0.0 3e-06
                        CHANNELS 3 Zrotation Yrotation Xrotation
                        JOINT LeftHandThumbEnd
                        {
                          OFFSET 3.180793 4e-06 -4e-06
                          CHANNELS 3 Zrotation Yrotation Xrotation
                        }
                      }
                    }
                  }
                  JOINT LeftHandIndex1
                  {
                    OFFSET 3.247786 2.352677 0.137192
                    CHANNELS 3 Zrotation Yrotation Xrotation
                    JOINT LeftHandIndex2
                    {
                      OFFSET 6.367095 1e-06 0.0
                      CHANNELS 3 Zrotation Yrotation Xrotation
                      JOINT LeftHandIndex3
                      {
                        OFFSET 3.662364 0.0 0.0
                        CHANNELS 3 Zrotation Yrotation Xrotation
                        JOINT LeftHandIndex4
                        {
                          OFFSET 2.329242 4e-06 -4e-06
                          CHANNELS 3 Zrotation Yrotation Xrotation
                          JOINT LeftHandIndexEnd
                          {
                            OFFSET 2.767823 1e-06 0.0
                            CHANNELS 3 Zrotation Yrotation Xrotation
                          }
                        }
                      }
                    }
                  }
                  JOINT LeftHandMiddle1
                  {
                    OFFSET 3.163612 0.945023 -0.406112
                    CHANNELS 3 Zrotation Yrotation Xrotation
                    JOINT LeftHandMiddle2
                    {
                      OFFSET 6.276789 3e-06 0.0
                      CHANNELS 3 Zrotation Yrotation Xrotation
                      JOINT LeftHandMiddle3
                      {
                        OFFSET 4.35652 -1e-06 4e-06
                        CHANNELS 3 Zrotation Yrotation Xrotation
                        JOINT LeftHandMiddle4
                        {
                          OFFSET 2.996877 0.0 8e-06
                          CHANNELS 3 Zrotation Yrotation Xrotation
                          JOINT LeftHandMiddleEnd
                          {
                            OFFSET 2.323256 3e-06 -4e-06
                            CHANNELS 3 Zrotation Yrotation Xrotation
                          }
                        }
                      }
                    }
                  }
                  JOINT LeftHandRing1
                  {
                    OFFSET 2.882606 -0.309162 0.107445
                    CHANNELS 3 Zrotation Yrotation Xrotation
                    JOINT LeftHandRing2
                    {
                      OFFSET 6.033198 0.0 4e-06
                      CHANNELS 3 Zrotation Yrotation Xrotation
                      JOINT LeftHandRing3
                      {
                        OFFSET 4.350578 3e-06 0.0
                        CHANNELS 3 Zrotation Yrotation Xrotation
                        JOINT LeftHandRing4
                        {
                          OFFSET 2.651321 2e-06 -7e-06
                          CHANNELS 3 Zrotation Yrotation Xrotation
                          JOINT LeftHandRingEnd
                          {
                            OFFSET 1.937663 1e-06 -4e-06
                            CHANNELS 3 Zrotation Yrotation Xrotation
                          }
                        }
                      }
                    }
                  }
                  JOINT LeftHandPinky1
                  {
                    OFFSET 2.865315 -1.525436 0.575687
                    CHANNELS 3 Zrotation Yrotation Xrotation
                    JOINT LeftHandPinky2
                    {
                      OFFSET 5.54936 1e-06 -8e-06
                      CHANNELS 3 Zrotation Yrotation Xrotation
                      JOINT LeftHandPinky3
                      {
                        OFFSET 3.070974 0.0 -4e-06
                        CHANNELS 3 Zrotation Yrotation Xrotation
                        JOINT LeftHandPinky4
                        {
                          OFFSET 1.549672 1e-06 0.0
                          CHANNELS 3 Zrotation Yrotation Xrotation
                          JOINT LeftHandPinkyEnd
                          {
                            OFFSET 1.952123 0.0 0.0
                            CHANNELS 3 Zrotation Yrotation Xrotation
                          }
                        }
                      }
                    }
                  }
                }
              }
            }
          }
          JOINT RightShoulder
          {
            OFFSET 23.161716 5.296122 -1.380114
            CHANNELS 3 Zrotation Yrotation Xrotation
            JOINT RightArm
            {
              OFFSET -16.027195 -2e-06 1.1e-05
              CHANNELS 3 Zrotation Yrotation Xrotation
              JOINT RightForeArm
              {
                OFFSET -28.736639 4e-06 2e-06
                CHANNELS 3 Zrotation Yrotation Xrotation
                JOINT RightHand
                {
                  OFFSET -27.133619 6e-06 0.0
                  CHANNELS 3 Zrotation Yrotation Xrotation
                  JOINT RightHandThumb1
                  {
                    OFFSET -2.274328 -3.351035 -0.83067
                    CHANNELS 3 Zrotation Yrotation Xrotation
                    JOINT RightHandThumb2
                    {
                      OFFSET -4.703594 -3e-06 2e-06
                      CHANNELS 3 Zrotation Yrotation Xrotation
                      JOINT RightHandThumb3
                      {
                        OFFSET -2.794935 -4e-06 -3e-06
                        CHANNELS 3 Zrotation Yrotation Xrotation
                        JOINT RightHandThumbEnd
                        {
                          OFFSET -3.183852 4e-06 1e-06
                          CHANNELS 3 Zrotation Yrotation Xrotation
                        }
                      }
                    }
                  }
                  JOINT RightHandIndex1
                  {
                    OFFSET -3.253496 -2.33755 -0.127667
                    CHANNELS 3 Zrotation Yrotation Xrotation
                    JOINT RightHandIndex2
                    {
                      OFFSET -6.344434 0.0 0.0
                      CHANNELS 3 Zrotation Yrotation Xrotation
                      JOINT RightHandIndex3
                      {
                        OFFSET -3.654871 0.0 -8e-06
                        CHANNELS 3 Zrotation Yrotation Xrotation
                        JOINT RightHandIndex4
                        {
                          OFFSET -2.327586 -1e-06 0.0
                          CHANNELS 3 Zrotation Yrotation Xrotation
                          JOINT RightHandIndexEnd
                          {
                            OFFSET -2.770001 3e-06 8e-06
                            CHANNELS 3 Zrotation Yrotation Xrotation
                          }
                        }
                      }
                    }
                  }
                  JOINT RightHandMiddle1
                  {
                    OFFSET -3.168223 -0.944764 0.411762
                    CHANNELS 3 Zrotation Yrotation Xrotation
                    JOINT RightHandMiddle2
                    {
                      OFFSET -6.266691 -1e-06 -4e-06
                      CHANNELS 3 Zrotation Yrotation Xrotation
                      JOINT RightHandMiddle3
                      {
                        OFFSET -4.348901 0.0 0.0
                        CHANNELS 3 Zrotation Yrotation Xrotation
                        JOINT RightHandMiddle4
                        {
                          OFFSET -3.00024 2e-06 -4e-06
                          CHANNELS 3 Zrotation Yrotation Xrotation
                          JOINT RightHandMiddleEnd
                          {
                            OFFSET -2.321477 -4e-06 -4e-06
                            CHANNELS 3 Zrotation Yrotation Xrotation
                          }
                        }
                      }
                    }
                  }
                  JOINT RightHandRing1
                  {
                    OFFSET -2.885654 0.293261 -0.119232
                    CHANNELS 3 Zrotation Yrotation Xrotation
                    JOINT RightHandRing2
                    {
                      OFFSET -6.032835 -1e-06 -4e-06
                      CHANNELS 3 Zrotation Yrotation Xrotation
                      JOINT RightHandRing3
                      {
                        OFFSET -4.33881 0.0 -4e-06
                        CHANNELS 3 Zrotation Yrotation Xrotation
                        JOINT RightHandRing4
                        {
                          OFFSET -2.654903 -4e-06 -4e-06
                          CHANNELS 3 Zrotation Yrotation Xrotation
                          JOINT RightHandRingEnd
                          {
                            OFFSET -1.935122 0.0 4e-06
                            CHANNELS 3 Zrotation Yrotation Xrotation
                          }
                        }
                      }
                    }
                  }
                  JOINT RightHandPinky1
                  {
                    OFFSET -2.866241 1.503904 -0.60527
                    CHANNELS 3 Zrotation Yrotation Xrotation
                    JOINT RightHandPinky2
                    {
                      OFFSET -5.553177 -2e-06 0.0
                      CHANNELS 3 Zrotation Yrotation Xrotation
                      JOINT RightHandPinky3
                      {
                        OFFSET -3.062664 -1e-06 -4e-06
                        CHANNELS 3 Zrotation Yrotation Xrotation
                        JOINT RightHandPinky4
                        {
                          OFFSET -1.546529 2e-06 4e-06
                          CHANNELS 3 Zrotation Yrotation Xrotation
                          JOINT RightHandPinkyEnd
                          {
                            OFFSET -1.952341 0.0 -4e-06
                            CHANNELS 3 Zrotation Yrotation Xrotation
                          }
                        }
                      }
                    }
                  }
                }
              }
            }
          }
        }
      }
    }
    JOINT LeftLeg
    {
      OFFSET -8.443107 2.567604 10.043214
      CHANNELS 3 Zrotation Yrotation Xrotation
      JOINT LeftShin
      {
        OFFSET 43.229198 1e-06 -1e-06
        CHANNELS 3 Zrotation Yrotation Xrotation
        JOINT LeftFoot
        {
          OFFSET 42.298611 1e-06 1e-06
          CHANNELS 3 Zrotation Yrotation Xrotation
          JOINT LeftToeBase
          {
            OFFSET 14.165858 1e-06 0.0
            CHANNELS 3 Zrotation Yrotation Xrotation
            JOINT LeftToeEnd
            {
              OFFSET 6.7141 -0.234461 0.0
              CHANNELS 3 Zrotation Yrotation Xrotation
            }
          }
        }
      }
    }
    JOINT RightLeg
    {
      OFFSET -8.303923 2.592729 -10.047278
      CHANNELS 3 Zrotation Yrotation Xrotation
      JOINT RightShin
      {
        OFFSET -43.369682 0.0 1e-06
        CHANNELS 3 Zrotation Yrotation Xrotation
        JOINT RightFoot
        {
          OFFSET -42.260784 4e-06 2e-06
          CHANNELS 3 Zrotation Yrotation Xrotation
          JOINT RightToeBase
          {
            OFFSET -14.222245 -2e-06 -1e-06
            CHANNELS 3 Zrotation Yrotation Xrotation
            JOINT RightToeEnd
            {
              OFFSET -6.660062 0.232574 -2e-06
              CHANNELS 3 Zrotation Yrotation Xrotation
            }
          }
        }
      }
    }
  }
}
MOTION
Frames: 4
Frame Time: 0.03333333333333333
0.0 0.0 0.0 0.0 -0.0 0.0 -1.631002 99.770042 -5.161983 90.053909 0.433781 90.036057 -2.205944 0.341937 -0.319013 -11.844284 -0.498232 0.412949 17.935383 -0.554142 -1.613191 18.545034 0.132689 2.704631 -2.450714 -0.562618 1.918282 -27.514009 0.190878 1.947121 6e-06 -0.0 0.0 -0.006774 0.005707 -0.049833 -0.018978 0.075786 -0.047749 -0.014001 -0.065754 -0.043778 -124.074142 -73.952408 142.195648 36.434235 -47.282589 17.598686 36.82811 0.374603 0.098723 1.540373 -10.938762 15.317286 17.636623 -26.322737 52.411205 -19.466652 -14.395597 29.410389 1e-06 -8.774819 -1e-06 16.47057 -18.199247 5.996766 -0.609777 -1.795653 -3.889329 -4.807091 -11.046811 -2.937849 0.0 -20.976013 2e-06 -5.019975 -25.033556 -4.031879 6e-06 1e-06 -1e-06 -10.634534 -5.686971 -3.565587 10.573269 -17.922947 -3.113899 1e-06 -13.821206 2e-06 -0.501783 -31.181505 -4.027016 -11.599504 -60.03054 7.370544 -13.982713 -7.150199 -2.875042 13.772726 -8.401489 -3.21824 0.347729 -34.211544 0.771655 -0.963032 -17.73337 2.62102 -0.0 2e-06 -1e-06 -17.346422 -20.095217 -4.20178 21.757555 -1.638372 3.866428 -0.0 -6.338824 2e-06 -1.697596 -22.591749 -6.194005 1e-06 -2e-06 -2e-06 29.887911 -72.405029 171.480743 34.083755 -41.37394 16.202511 39.295506 -0.183804 0.094344 -3.95362 -5.033705 7.502934 22.182108 -20.375896 49.933319 -16.701807 -16.743525 28.47653 -2e-06 -12.6906 -1e-06 16.267681 -17.693707 2.497252 -0.105919 -1.513856 -4.27588 -5.03904 -5.612871 -2.953554 3e-06 -11.020521 -1e-06 -6.111297 -15.89533 -3.840468 -0.0 0.0 1e-06 -10.283367 -5.680288 -4.341837 11.02829 -11.302402 -2.372632 -1.38427 -14.238579 -6.32012 -0.625442 -26.924187 -3.827597 -4.353962 -50.205219 -3.891498 -13.708521 -7.363475 -3.720939 18.141144 -14.052734 -3.242674 5e-06 -18.787268 -1e-06 -0.429715 -8.456043 2.555502 0.0 1e-06 2e-06 -15.923532 -20.094482 -5.473583 30.419193 -7.190821 1.735929 3e-06 -8.162922 -5e-06 -1.861902 -22.861467 -6.167942 -0.0 -3e-06 -3e-06 171.866837 -6.281582 -15.77596 17.867517 -0.018296 0.132798 -77.195465 3.562054 -3.520661 -7.167807 1.51167 2.059033 -0.999999 -0.0 0.0 -10.219737 -3.229148 -9.619014 19.181593 0.02148 -0.099142 -77.114746 -2.883059 -5.195751 -6.965557 0.807693 1.657607 -1.000001 -0.0 -0.0 
0.0 0.0 0.0 0.0 -0.0 0.0 -1.609934 99.798889 -5.15495 90.100838 0.35676 90.005302 -2.187394 0.324548 -0.311653 -11.822354 -0.481925 0.467595 17.925493 -0.523874 -1.6428 18.37208 0.063549 2.664872 -2.41924 -0.565764 2.069717 -27.588463 0.097069 1.931046 6e-06 -0.0 0.0 -0.006142 0.007296 -0.013693 -0.004997 0.082409 -0.010995 -0.001832 -0.069181 -0.008208 -124.157921 -73.962624 142.391464 36.668892 -47.258224 17.343609 36.851353 0.301489 0.021692 1.560892 -10.90045 15.551069 17.636625 -26.322733 52.411194 -19.466656 -14.395597 29.410389 -1e-06 -8.774819 -2e-06 16.37993 -18.161537 6.019497 -0.609776 -1.795654 -3.889326 -4.807088 -11.046807 -2.93785 5e-06 -20.976011 2e-06 -5.01997 -25.033548 -4.031878 5e-06 1e-06 0.0 -10.634531 -5.68697 -3.565587 10.573271 -17.922947 -3.113899 4e-06 -13.821206 3e-06 -0.501781 -31.181498 -4.027012 -11.556735 -59.929161 7.415263 -13.982711 -7.150196 -2.875043 13.772727 -8.401491 -3.218239 0.347735 -34.211544 0.771655 -0.96303 -17.73337 2.621021 1e-06 1e-06 -1e-06 -17.346413 -20.095213 -4.201782 21.757555 -1.638376 3.866427 2e-06 -6.338822 1e-06 -1.697591 -22.59174 -6.194003 0.0 -2e-06 -3e-06 29.86087 -72.423019 171.634094 34.215405 -41.334488 16.148655 39.110916 -0.158383 0.078763 -3.786825 -5.100817 7.679165 22.182114 -20.375895 49.933323 -16.701813 -16.74353 28.476532 -4e-06 -12.690601 -1e-06 16.235643 -17.707691 2.501944 -0.10592 -1.513855 -4.275881 -5.039041 -5.61287 -2.953556 5e-06 -11.02052 -3e-06 -6.111295 -15.895329 -3.840473 -1e-06 1e-06 1e-06 -10.28337 -5.680287 -4.341842 11.028296 -11.302404 -2.372634 -1.384269 -14.23858 -6.320121 -0.625433 -26.924187 -3.8276 -4.415708 -50.265991 -3.858474 -13.708524 -7.363473 -3.720942 18.141148 -14.052738 -3.242674 9e-06 -18.787268 -0.0 -0.429709 -8.456043 2.555502 1e-06 -1e-06 0.0 -15.923531 -20.094479 -5.473589 30.41921 -7.190826 1.735927 3e-06 -8.162922 -2e-06 -1.861902 -22.861465 -6.167941 2e-06 -5e-06 -1e-06 171.92337 -6.170312 -15.709952 17.591795 -0.008007 0.167698 -77.069633 3.528585 -3.603248 -7.232323 1.537587 2.06298 -0.999999 -0.0 0.0 -10.235291 -3.271958 -9.57932 19.036785 0.015327 -0.078622 -77.030052 -2.920757 -5.227814 -7.0146 0.79338 1.658209 -1.000002 1e-06 0.0 
0.0 0.0 0.0 0.0 -0.0 0.0 -1.591135 99.809174 -5.158644 90.167633 0.275459 89.975281 -2.182216 0.305195 -0.296069 -11.812407 -0.473287 0.483212 17.962759 -0.499445 -1.646648 18.185345 -0.024973 2.673095 -2.431959 -0.554107 2.144982 -27.611473 0.004211 1.959053 6e-06 -0.0 0.0 -0.0071 0.008753 0.003409 -0.008767 0.086966 0.007102 -0.004881 -0.071047 0.007387 -124.248505 -73.978043 142.544281 36.845684 -47.225937 17.223583 36.90374 0.270163 -0.026206 1.56219 -10.89677 15.645995 17.636625 -26.322725 52.411201 -19.466663 -14.395598 29.410395 0.0 -8.774822 -3e-06 16.339756 -18.152578 6.049535 -0.609778 -1.795654 -3.889329 -4.807088 -11.046811 -2.937852 5e-06 -20.976017 -1e-06 -5.019969 -25.033556 -4.031882 5e-06 1e-06 0.0 -10.634536 -5.686972 -3.56559 10.573275 -17.922951 -3.113901 4e-06 -13.82121 -2e-06 -0.501776 -31.181505 -4.027017 -11.614851 -59.843624 7.462138 -13.982716 -7.150199 -2.875042 13.772731 -8.401491 -3.218241 0.347736 -34.211555 0.77165 -0.96303 -17.733368 2.621019 1e-06 1e-06 0.0 -17.346422 -20.095221 -4.201784 21.757563 -1.638375 3.866428 -1e-06 -6.338824 -0.0 -1.69759 -22.591749 -6.19401 2e-06 -3e-06 -3e-06 29.723013 -72.429756 171.854614 34.271286 -41.198177 16.208199 39.062466 -0.142856 0.088252 -3.703007 -5.172407 7.859591 22.182117 -20.375898 49.933334 -16.701815 -16.743528 28.476532 -3e-06 -12.690602 -1e-06 16.221615 -17.674992 2.507443 -0.10592 -1.513857 -4.275883 -5.039041 -5.612872 -2.953557 6e-06 -11.020523 -5e-06 -6.111297 -15.895332 -3.840471 0.0 0.0 0.0 -10.283373 -5.680289 -4.341841 11.028296 -11.302406 -2.372632 -1.384271 -14.238581 -6.320122 -0.625437 -26.924192 -3.827606 -4.444448 -50.254181 -3.853594 -13.708526 -7.363476 -3.720942 18.141148 -14.052739 -3.242674 7e-06 -18.78727 -2e-06 -0.42971 -8.456045 2.555501 -2e-06 0.0 0.0 -15.923538 -20.094484 -5.473588 30.419222 -7.190827 1.735929 2e-06 -8.162925 -2e-06 -1.861903 -22.861469 -6.167942 -0.0 -4e-06 -3e-06 171.905365 -6.057458 -15.671046 17.446772 -0.00718 0.179173 -76.998825 3.48838 -3.612126 -7.202719 1.546301 2.066654 -0.999998 -0.0 0.0 -10.347181 -3.363289 -9.566573 19.068768 0.024944 -0.069961 -77.02742 -2.934035 -5.26749 -6.995755 0.791977 1.659422 -1.000002 0.0 -0.0 
0.0 0.0 0.0 0.0 -0.0 0.0 -1.582882 99.813507 -5.163359 90.226639 0.194973 89.955582 -2.167204 0.295639 -0.280428 -11.808717 -0.462313 0.466477 18.013222 -0.476036 -1.627743 18.012709 -0.138612 2.67879 -2.458179 -0.546648 2.196601 -27.665382 -0.059212 2.010408 5e-06 0.0 -0.0 -0.009439 0.009168 0.007018 -0.022818 0.088962 0.011134 -0.019382 -0.072325 0.00977 -124.377525 -73.991608 142.703491 37.026318 -47.199715 17.181101 36.896748 0.267814 -0.039767 1.591543 -10.857624 15.749035 17.636633 -26.322723 52.411182 -19.466665 -14.3956 29.410389 0.0 -8.774822 -2e-06 16.311316 -18.127867 6.066303 -0.609776 -1.795655 -3.889329 -4.80709 -11.046812 -2.937848 4e-06 -20.976019 -1e-06 -5.019969 -25.033558 -4.031884 5e-06 1e-06 0.0 -10.634535 -5.686973 -3.565589 10.573274 -17.922951 -3.113901 3e-06 -13.821209 -2e-06 -0.501776 -31.181505 -4.027017 -11.674932 -59.780235 7.493708 -13.982714 -7.150198 -2.875042 13.772731 -8.401491 -3.218241 0.347734 -34.211544 0.77165 -0.963028 -17.733366 2.621018 -1e-06 1e-06 0.0 -17.346422 -20.095221 -4.201782 21.757561 -1.638374 3.866429 1e-06 -6.338823 0.0 -1.697591 -22.591747 -6.194008 -0.0 -3e-06 -2e-06 29.560833 -72.434502 172.086365 34.308178 -40.982803 16.395567 39.07975 -0.101591 0.123908 -3.65532 -5.287958 7.986925 22.182114 -20.375887 49.9333 -16.701815 -16.743528 28.476524 -2e-06 -12.690601 -1e-06 16.200527 -17.626612 2.52571 -0.105919 -1.513856 -4.27588 -5.039042 -5.612873 -2.953556 5e-06 -11.020525 -4e-06 -6.1113 -15.895334 -3.84047 1e-06 0.0 -1e-06 -10.283371 -5.680289 -4.341837 11.028294 -11.302404 -2.372636 -1.384271 -14.238583 -6.320119 -0.62544 -26.924192 -3.827601 -4.471105 -50.208149 -3.836813 -13.708526 -7.363478 -3.720936 18.141148 -14.052738 -3.242675 5e-06 -18.78727 -4e-06 -0.429713 -8.456043 2.555502 1e-06 0.0 0.0 -15.923536 -20.094484 -5.473584 30.41921 -7.190824 1.735928 3e-06 -8.162925 -4e-06 -1.8619 -22.861473 -6.167942 0.0 -3e-06 -2e-06 171.858109 -5.967642 -15.63858 17.358593 -0.010496 0.181586 -76.950089 3.427849 -3.591708 -7.16692 1.550514 2.068838 -0.999999 0.0 0.0 -10.475647 -3.446476 -9.565885 19.139494 0.038358 -0.076448 -77.047157 -2.924707 -5.318492 -6.987189 0.788641 1.658633 -1.000001 -1e-06 0.0 
